<mxfile host="app.diagrams.net" modified="2021-07-08T07:35:21.616Z" agent="5.0 (Macintosh; Intel Mac OS X 10_15_7) AppleWebKit/537.36 (KHTML, like Gecko) Chrome/91.0.4472.114 Safari/537.36" etag="n_m8VvMFu-tUjwVtm8bG" version="14.8.0" type="github">
  <diagram id="99QFXmt0-bC7IZZeInWv" name="Page-1">
    <mxGraphModel dx="444" dy="317" grid="1" gridSize="10" guides="1" tooltips="1" connect="1" arrows="1" fold="1" page="1" pageScale="1" pageWidth="850" pageHeight="1100" math="0" shadow="0">
      <root>
        <mxCell id="0" />
        <mxCell id="1" parent="0" />
        <mxCell id="qYqVfo9mMbGw65mWLVHO-10" style="edgeStyle=orthogonalEdgeStyle;rounded=0;orthogonalLoop=1;jettySize=auto;html=1;exitX=1;exitY=0.5;exitDx=0;exitDy=0;entryX=0;entryY=0.5;entryDx=0;entryDy=0;" edge="1" parent="1" source="qYqVfo9mMbGw65mWLVHO-3" target="qYqVfo9mMbGw65mWLVHO-4">
          <mxGeometry relative="1" as="geometry" />
        </mxCell>
        <mxCell id="qYqVfo9mMbGw65mWLVHO-3" value="Doc" style="rounded=0;whiteSpace=wrap;html=1;" vertex="1" parent="1">
          <mxGeometry x="200" y="200" width="120" height="40" as="geometry" />
        </mxCell>
        <mxCell id="qYqVfo9mMbGw65mWLVHO-19" value="" style="edgeStyle=orthogonalEdgeStyle;rounded=0;orthogonalLoop=1;jettySize=auto;html=1;" edge="1" parent="1" source="qYqVfo9mMbGw65mWLVHO-4" target="qYqVfo9mMbGw65mWLVHO-18">
          <mxGeometry relative="1" as="geometry" />
        </mxCell>
        <mxCell id="qYqVfo9mMbGw65mWLVHO-4" value="ORM" style="rounded=0;whiteSpace=wrap;html=1;" vertex="1" parent="1">
          <mxGeometry x="400" y="240" width="120" height="40" as="geometry" />
        </mxCell>
        <mxCell id="qYqVfo9mMbGw65mWLVHO-6" style="edgeStyle=orthogonalEdgeStyle;rounded=0;orthogonalLoop=1;jettySize=auto;html=1;exitX=1;exitY=0.5;exitDx=0;exitDy=0;" edge="1" parent="1" source="qYqVfo9mMbGw65mWLVHO-5" target="qYqVfo9mMbGw65mWLVHO-4">
          <mxGeometry relative="1" as="geometry" />
        </mxCell>
        <mxCell id="qYqVfo9mMbGw65mWLVHO-46" style="edgeStyle=orthogonalEdgeStyle;rounded=0;orthogonalLoop=1;jettySize=auto;html=1;exitX=0.5;exitY=0;exitDx=0;exitDy=0;entryX=0.5;entryY=1;entryDx=0;entryDy=0;" edge="1" parent="1" source="qYqVfo9mMbGw65mWLVHO-5" target="qYqVfo9mMbGw65mWLVHO-3">
          <mxGeometry relative="1" as="geometry" />
        </mxCell>
        <mxCell id="qYqVfo9mMbGw65mWLVHO-5" value="Channel" style="rounded=0;whiteSpace=wrap;html=1;fillColor=#eeeeee;strokeColor=#36393d;" vertex="1" parent="1">
          <mxGeometry x="200" y="280" width="120" height="40" as="geometry" />
        </mxCell>
        <mxCell id="qYqVfo9mMbGw65mWLVHO-13" style="edgeStyle=orthogonalEdgeStyle;rounded=0;orthogonalLoop=1;jettySize=auto;html=1;exitX=1;exitY=0.5;exitDx=0;exitDy=0;entryX=0;entryY=0.5;entryDx=0;entryDy=0;" edge="1" parent="1" source="qYqVfo9mMbGw65mWLVHO-11" target="qYqVfo9mMbGw65mWLVHO-3">
          <mxGeometry relative="1" as="geometry" />
        </mxCell>
        <mxCell id="qYqVfo9mMbGw65mWLVHO-11" value="UX" style="rounded=0;whiteSpace=wrap;html=1;" vertex="1" parent="1">
          <mxGeometry x="40" y="200" width="120" height="40" as="geometry" />
        </mxCell>
        <mxCell id="qYqVfo9mMbGw65mWLVHO-15" style="edgeStyle=orthogonalEdgeStyle;rounded=0;orthogonalLoop=1;jettySize=auto;html=1;exitX=1;exitY=0.5;exitDx=0;exitDy=0;" edge="1" parent="1" source="qYqVfo9mMbGw65mWLVHO-14" target="qYqVfo9mMbGw65mWLVHO-5">
          <mxGeometry relative="1" as="geometry" />
        </mxCell>
        <mxCell id="qYqVfo9mMbGw65mWLVHO-14" value="UX" style="rounded=0;whiteSpace=wrap;html=1;" vertex="1" parent="1">
          <mxGeometry x="40" y="280" width="120" height="40" as="geometry" />
        </mxCell>
        <mxCell id="qYqVfo9mMbGw65mWLVHO-17" style="edgeStyle=orthogonalEdgeStyle;rounded=0;orthogonalLoop=1;jettySize=auto;html=1;exitX=1;exitY=0.5;exitDx=0;exitDy=0;entryX=0;entryY=0.5;entryDx=0;entryDy=0;" edge="1" parent="1" source="qYqVfo9mMbGw65mWLVHO-16" target="qYqVfo9mMbGw65mWLVHO-5">
          <mxGeometry relative="1" as="geometry" />
        </mxCell>
        <mxCell id="qYqVfo9mMbGw65mWLVHO-16" value="Webhook" style="rounded=0;whiteSpace=wrap;html=1;" vertex="1" parent="1">
          <mxGeometry x="40" y="320" width="120" height="40" as="geometry" />
        </mxCell>
        <mxCell id="qYqVfo9mMbGw65mWLVHO-49" style="edgeStyle=orthogonalEdgeStyle;rounded=0;orthogonalLoop=1;jettySize=auto;html=1;exitX=0;exitY=0.5;exitDx=0;exitDy=0;entryX=0.5;entryY=0;entryDx=0;entryDy=0;" edge="1" parent="1" source="qYqVfo9mMbGw65mWLVHO-18" target="qYqVfo9mMbGw65mWLVHO-3">
          <mxGeometry relative="1" as="geometry" />
        </mxCell>
        <mxCell id="qYqVfo9mMbGw65mWLVHO-18" value="Database" style="rounded=0;whiteSpace=wrap;html=1;" vertex="1" parent="1">
          <mxGeometry x="400" y="160" width="120" height="40" as="geometry" />
        </mxCell>
        <mxCell id="qYqVfo9mMbGw65mWLVHO-26" value="Form - Collect" style="text;html=1;strokeColor=none;fillColor=none;align=center;verticalAlign=middle;whiteSpace=wrap;rounded=0;" vertex="1" parent="1">
          <mxGeometry x="40" y="120" width="120" height="20" as="geometry" />
        </mxCell>
        <mxCell id="qYqVfo9mMbGw65mWLVHO-28" value="Doc - Formal" style="text;html=1;strokeColor=none;fillColor=none;align=center;verticalAlign=middle;whiteSpace=wrap;rounded=0;" vertex="1" parent="1">
          <mxGeometry x="40" y="140" width="120" height="20" as="geometry" />
        </mxCell>
        <mxCell id="qYqVfo9mMbGw65mWLVHO-29" value="PPT - Present" style="text;html=1;strokeColor=none;fillColor=none;align=center;verticalAlign=middle;whiteSpace=wrap;rounded=0;" vertex="1" parent="1">
          <mxGeometry x="40" y="160" width="120" height="20" as="geometry" />
        </mxCell>
        <mxCell id="qYqVfo9mMbGw65mWLVHO-32" style="edgeStyle=orthogonalEdgeStyle;rounded=0;orthogonalLoop=1;jettySize=auto;html=1;exitX=1;exitY=0.5;exitDx=0;exitDy=0;entryX=0;entryY=0.5;entryDx=0;entryDy=0;" edge="1" parent="1" source="qYqVfo9mMbGw65mWLVHO-31" target="qYqVfo9mMbGw65mWLVHO-5">
          <mxGeometry relative="1" as="geometry" />
        </mxCell>
        <mxCell id="qYqVfo9mMbGw65mWLVHO-31" value="Bot" style="rounded=0;whiteSpace=wrap;html=1;" vertex="1" parent="1">
          <mxGeometry x="40" y="360" width="120" height="40" as="geometry" />
        </mxCell>
        <mxCell id="qYqVfo9mMbGw65mWLVHO-36" value="Report - Analyze" style="text;html=1;strokeColor=none;fillColor=none;align=center;verticalAlign=middle;whiteSpace=wrap;rounded=0;" vertex="1" parent="1">
          <mxGeometry x="40" y="180" width="120" height="20" as="geometry" />
        </mxCell>
        <mxCell id="qYqVfo9mMbGw65mWLVHO-42" value="API - Collect" style="text;html=1;strokeColor=none;fillColor=none;align=center;verticalAlign=middle;whiteSpace=wrap;rounded=0;" vertex="1" parent="1">
          <mxGeometry x="40" y="400" width="120" height="20" as="geometry" />
        </mxCell>
        <mxCell id="qYqVfo9mMbGw65mWLVHO-43" value="Bot - Reply" style="text;html=1;strokeColor=none;fillColor=none;align=center;verticalAlign=middle;whiteSpace=wrap;rounded=0;" vertex="1" parent="1">
          <mxGeometry x="40" y="420" width="120" height="20" as="geometry" />
        </mxCell>
        <mxCell id="qYqVfo9mMbGw65mWLVHO-44" value="Button - Interact" style="text;html=1;strokeColor=none;fillColor=none;align=center;verticalAlign=middle;whiteSpace=wrap;rounded=0;" vertex="1" parent="1">
          <mxGeometry x="40" y="440" width="120" height="20" as="geometry" />
        </mxCell>
        <mxCell id="qYqVfo9mMbGw65mWLVHO-45" value="Chat - Exchange" style="text;html=1;strokeColor=none;fillColor=none;align=center;verticalAlign=middle;whiteSpace=wrap;rounded=0;" vertex="1" parent="1">
          <mxGeometry x="40" y="460" width="120" height="20" as="geometry" />
        </mxCell>
        <mxCell id="qYqVfo9mMbGw65mWLVHO-50" value="App" style="rounded=0;whiteSpace=wrap;html=1;verticalAlign=top;" vertex="1" parent="1">
          <mxGeometry x="560" y="120" width="160" height="360" as="geometry" />
        </mxCell>
        <mxCell id="qYqVfo9mMbGw65mWLVHO-51" value="Bot" style="rounded=0;whiteSpace=wrap;html=1;" vertex="1" parent="1">
          <mxGeometry x="580" y="160" width="120" height="40" as="geometry" />
        </mxCell>
        <mxCell id="qYqVfo9mMbGw65mWLVHO-53" value="Auto" style="rounded=0;whiteSpace=wrap;html=1;" vertex="1" parent="1">
          <mxGeometry x="580" y="240" width="120" height="40" as="geometry" />
        </mxCell>
        <mxCell id="qYqVfo9mMbGw65mWLVHO-54" value="ORM" style="rounded=0;whiteSpace=wrap;html=1;" vertex="1" parent="1">
          <mxGeometry x="580" y="320" width="120" height="40" as="geometry" />
        </mxCell>
        <mxCell id="qYqVfo9mMbGw65mWLVHO-55" value="Doc" style="rounded=0;whiteSpace=wrap;html=1;" vertex="1" parent="1">
          <mxGeometry x="580" y="400" width="120" height="40" as="geometry" />
        </mxCell>
        <mxCell id="qYqVfo9mMbGw65mWLVHO-56" value="Block - Thread" style="rounded=0;whiteSpace=wrap;html=1;verticalAlign=middle;" vertex="1" parent="1">
          <mxGeometry x="40" y="520" width="120" height="40" as="geometry" />
        </mxCell>
        <mxCell id="qYqVfo9mMbGw65mWLVHO-57" value="Indent Block" style="rounded=0;whiteSpace=wrap;html=1;verticalAlign=middle;" vertex="1" parent="1">
          <mxGeometry x="60" y="560" width="120" height="40" as="geometry" />
        </mxCell>
        <mxCell id="qYqVfo9mMbGw65mWLVHO-58" value="Block - Graph" style="rounded=0;whiteSpace=wrap;html=1;verticalAlign=middle;" vertex="1" parent="1">
          <mxGeometry x="40" y="640" width="120" height="40" as="geometry" />
        </mxCell>
        <mxCell id="qYqVfo9mMbGw65mWLVHO-59" value="Indent Block" style="rounded=0;whiteSpace=wrap;html=1;verticalAlign=middle;" vertex="1" parent="1">
          <mxGeometry x="60" y="600" width="120" height="40" as="geometry" />
        </mxCell>
        <mxCell id="qYqVfo9mMbGw65mWLVHO-60" value="Inserted Block" style="rounded=0;whiteSpace=wrap;html=1;verticalAlign=middle;fillColor=#eeeeee;strokeColor=#36393d;" vertex="1" parent="1">
          <mxGeometry x="40" y="680" width="120" height="40" as="geometry" />
        </mxCell>
        <mxCell id="qYqVfo9mMbGw65mWLVHO-61" value="Block - Button" style="rounded=0;whiteSpace=wrap;html=1;verticalAlign=middle;" vertex="1" parent="1">
          <mxGeometry x="40" y="720" width="120" height="40" as="geometry" />
        </mxCell>
        <mxCell id="qYqVfo9mMbGw65mWLVHO-62" value="Block - Group" style="rounded=0;whiteSpace=wrap;html=1;verticalAlign=middle;" vertex="1" parent="1">
          <mxGeometry x="40" y="760" width="120" height="40" as="geometry" />
        </mxCell>
      </root>
    </mxGraphModel>
  </diagram>
</mxfile>
